<svg xmlns="http://www.w3.org/2000/svg" viewBox="0 0 1200 320" width="1200" height="320"
     font-family="ui-monospace, 'SF Mono', 'JetBrains Mono', Menlo, monospace">
  <defs>
    <radialGradient id="glow" cx="0.5" cy="0.5" r="0.5">
      <stop offset="0" stop-color="#af87ff" stop-opacity="0.55"/>
      <stop offset="1" stop-color="#af87ff" stop-opacity="0"/>
    </radialGradient>
    <radialGradient id="sheen" cx="0.36" cy="0.32" r="0.7">
      <stop offset="0" stop-color="#ffffff" stop-opacity="0.35"/>
      <stop offset="0.4" stop-color="#ffffff" stop-opacity="0"/>
    </radialGradient>
    <clipPath id="ball"><circle cx="110" cy="160" r="104"/></clipPath>
  </defs>

  <rect width="1200" height="320" rx="30" fill="#0e0024"/>

  <!-- centered: gem(220) + gap(64) + wordmark(760) = 1044, margins 78 -->
  <g transform="translate(78,0)">
    <circle cx="110" cy="160" r="160" fill="url(#glow)"/>

    <!-- mirrorball facets -->
    <g clip-path="url(#ball)" stroke="#0e0024" stroke-width="1.2" stroke-linejoin="round">
    <polygon points="99.1,263.4 99.5,263.4 64.4,252.7 62.8,252.7" fill="#f1eaff"/>
    <polygon points="99.5,263.4 100.6,263.4 69.1,252.7 64.4,252.7" fill="#2f145e"/>
    <polygon points="100.6,263.4 102.3,263.4 76.6,252.7 69.1,252.7" fill="#2f145e"/>
    <polygon points="102.3,263.4 104.6,263.4 86.4,252.7 76.6,252.7" fill="#2f145e"/>
    <polygon points="104.6,263.4 107.2,263.4 97.8,252.7 86.4,252.7" fill="#2f145e"/>
    <polygon points="107.2,263.4 110.0,263.4 110.0,252.7 97.8,252.7" fill="#2f145e"/>
    <polygon points="110.0,263.4 112.8,263.4 122.2,252.7 110.0,252.7" fill="#2f145e"/>
    <polygon points="112.8,263.4 115.4,263.4 133.6,252.7 122.2,252.7" fill="#2f145e"/>
    <polygon points="115.4,263.4 117.7,263.4 143.4,252.7 133.6,252.7" fill="#f1eaff"/>
    <polygon points="117.7,263.4 119.4,263.4 150.9,252.7 143.4,252.7" fill="#2f145e"/>
    <polygon points="119.4,263.4 120.5,263.4 155.6,252.7 150.9,252.7" fill="#2f145e"/>
    <polygon points="120.5,263.4 120.9,263.4 157.2,252.7 155.6,252.7" fill="#2f145e"/>
    <polygon points="62.8,252.7 64.4,252.7 35.3,229.6 32.7,229.6" fill="#2f145e"/>
    <polygon points="64.4,252.7 69.1,252.7 43.1,229.6 35.3,229.6" fill="#2f145e"/>
    <polygon points="69.1,252.7 76.6,252.7 55.3,229.6 43.1,229.6" fill="#341963"/>
    <polygon points="76.6,252.7 86.4,252.7 71.4,229.6 55.3,229.6" fill="#361b65"/>
    <polygon points="86.4,252.7 97.8,252.7 90.0,229.6 71.4,229.6" fill="#341963"/>
    <polygon points="97.8,252.7 110.0,252.7 110.0,229.6 90.0,229.6" fill="#2f145e"/>
    <polygon points="110.0,252.7 122.2,252.7 130.0,229.6 110.0,229.6" fill="#2f145e"/>
    <polygon points="122.2,252.7 133.6,252.7 148.6,229.6 130.0,229.6" fill="#2f145e"/>
    <polygon points="133.6,252.7 143.4,252.7 164.7,229.6 148.6,229.6" fill="#2f145e"/>
    <polygon points="143.4,252.7 150.9,252.7 176.9,229.6 164.7,229.6" fill="#2f145e"/>
    <polygon points="150.9,252.7 155.6,252.7 184.7,229.6 176.9,229.6" fill="#2f145e"/>
    <polygon points="155.6,252.7 157.2,252.7 187.3,229.6 184.7,229.6" fill="#2f145e"/>
    <polygon points="32.7,229.6 35.3,229.6 16.2,197.3 12.9,197.3" fill="#482c77"/>
    <polygon points="35.3,229.6 43.1,229.6 25.9,197.3 16.2,197.3" fill="#583b87"/>
    <polygon points="43.1,229.6 55.3,229.6 41.3,197.3 25.9,197.3" fill="#634591"/>
    <polygon points="55.3,229.6 71.4,229.6 61.5,197.3 41.3,197.3" fill="#664995"/>
    <polygon points="71.4,229.6 90.0,229.6 84.9,197.3 61.5,197.3" fill="#634692"/>
    <polygon points="90.0,229.6 110.0,229.6 110.0,197.3 84.9,197.3" fill="#593c87"/>
    <polygon points="110.0,229.6 130.0,229.6 135.1,197.3 110.0,197.3" fill="#492d78"/>
    <polygon points="130.0,229.6 148.6,229.6 158.5,197.3 135.1,197.3" fill="#361b65"/>
    <polygon points="148.6,229.6 164.7,229.6 178.7,197.3 158.5,197.3" fill="#2f145e"/>
    <polygon points="164.7,229.6 176.9,229.6 194.1,197.3 178.7,197.3" fill="#2f145e"/>
    <polygon points="176.9,229.6 184.7,229.6 203.8,197.3 194.1,197.3" fill="#2f145e"/>
    <polygon points="184.7,229.6 187.3,229.6 207.1,197.3 203.8,197.3" fill="#2f145e"/>
    <polygon points="12.9,197.3 16.2,197.3 9.5,160.0 6.0,160.0" fill="#6f519d"/>
    <polygon points="16.2,197.3 25.9,197.3 19.9,160.0 9.5,160.0" fill="#8364b2"/>
    <polygon points="25.9,197.3 41.3,197.3 36.5,160.0 19.9,160.0" fill="#9171bf"/>
    <polygon points="41.3,197.3 61.5,197.3 58.0,160.0 36.5,160.0" fill="#9676c4"/>
    <polygon points="61.5,197.3 84.9,197.3 83.1,160.0 58.0,160.0" fill="#9172c0"/>
    <polygon points="84.9,197.3 110.0,197.3 110.0,160.0 83.1,160.0" fill="#8465b3"/>
    <polygon points="110.0,197.3 135.1,197.3 136.9,160.0 110.0,160.0" fill="#70529e"/>
    <polygon points="135.1,197.3 158.5,197.3 162.0,160.0 136.9,160.0" fill="#f1eaff"/>
    <polygon points="158.5,197.3 178.7,197.3 183.5,160.0 162.0,160.0" fill="#3c206b"/>
    <polygon points="178.7,197.3 194.1,197.3 200.1,160.0 183.5,160.0" fill="#2f145e"/>
    <polygon points="194.1,197.3 203.8,197.3 210.5,160.0 200.1,160.0" fill="#2f145e"/>
    <polygon points="203.8,197.3 207.1,197.3 214.0,160.0 210.5,160.0" fill="#2f145e"/>
    <polygon points="6.0,160.0 9.5,160.0 16.2,122.7 12.9,122.7" fill="#8f6fbd"/>
    <polygon points="9.5,160.0 19.9,160.0 25.9,122.7 16.2,122.7" fill="#a484d3"/>
    <polygon points="19.9,160.0 36.5,160.0 41.3,122.7 25.9,122.7" fill="#f1eaff"/>
    <polygon points="36.5,160.0 58.0,160.0 61.5,122.7 41.3,122.7" fill="#b796e5"/>
    <polygon points="58.0,160.0 83.1,160.0 84.9,122.7 61.5,122.7" fill="#b392e1"/>
    <polygon points="83.1,160.0 110.0,160.0 110.0,122.7 84.9,122.7" fill="#a585d3"/>
    <polygon points="110.0,160.0 136.9,160.0 135.1,122.7 110.0,122.7" fill="#9070be"/>
    <polygon points="136.9,160.0 162.0,160.0 158.5,122.7 135.1,122.7" fill="#7557a3"/>
    <polygon points="162.0,160.0 183.5,160.0 178.7,122.7 158.5,122.7" fill="#573a86"/>
    <polygon points="183.5,160.0 200.1,160.0 194.1,122.7 178.7,122.7" fill="#f1eaff"/>
    <polygon points="200.1,160.0 210.5,160.0 203.8,122.7 194.1,122.7" fill="#2f145e"/>
    <polygon points="210.5,160.0 214.0,160.0 207.1,122.7 203.8,122.7" fill="#2f145e"/>
    <polygon points="12.9,122.7 16.2,122.7 35.3,90.4 32.7,90.4" fill="#a181cf"/>
    <polygon points="16.2,122.7 25.9,122.7 43.1,90.4 35.3,90.4" fill="#f1eaff"/>
    <polygon points="25.9,122.7 41.3,122.7 55.3,90.4 43.1,90.4" fill="#f1eaff"/>
    <polygon points="41.3,122.7 61.5,122.7 71.4,90.4 55.3,90.4" fill="#c5a3f3"/>
    <polygon points="61.5,122.7 84.9,122.7 90.0,90.4 71.4,90.4" fill="#c19fef"/>
    <polygon points="84.9,122.7 110.0,122.7 110.0,90.4 90.0,90.4" fill="#f1eaff"/>
    <polygon points="110.0,122.7 135.1,122.7 130.0,90.4 110.0,90.4" fill="#a282d0"/>
    <polygon points="135.1,122.7 158.5,122.7 148.6,90.4 130.0,90.4" fill="#8a6bb8"/>
    <polygon points="158.5,122.7 178.7,122.7 164.7,90.4 148.6,90.4" fill="#6f519e"/>
    <polygon points="178.7,122.7 194.1,122.7 176.9,90.4 164.7,90.4" fill="#543782"/>
    <polygon points="194.1,122.7 203.8,122.7 184.7,90.4 176.9,90.4" fill="#3b1f6a"/>
    <polygon points="203.8,122.7 207.1,122.7 187.3,90.4 184.7,90.4" fill="#2f145e"/>
    <polygon points="32.7,90.4 35.3,90.4 64.4,67.3 62.8,67.3" fill="#a282d0"/>
    <polygon points="35.3,90.4 43.1,90.4 69.1,67.3 64.4,67.3" fill="#b08fde"/>
    <polygon points="43.1,90.4 55.3,90.4 76.6,67.3 69.1,67.3" fill="#b997e7"/>
    <polygon points="55.3,90.4 71.4,90.4 86.4,67.3 76.6,67.3" fill="#f1eaff"/>
    <polygon points="71.4,90.4 90.0,90.4 97.8,67.3 86.4,67.3" fill="#b997e7"/>
    <polygon points="90.0,90.4 110.0,90.4 110.0,67.3 97.8,67.3" fill="#b08fdf"/>
    <polygon points="110.0,90.4 130.0,90.4 122.2,67.3 110.0,67.3" fill="#a383d1"/>
    <polygon points="130.0,90.4 148.6,90.4 133.6,67.3 122.2,67.3" fill="#9272c0"/>
    <polygon points="148.6,90.4 164.7,90.4 143.4,67.3 133.6,67.3" fill="#7e5fad"/>
    <polygon points="164.7,90.4 176.9,90.4 150.9,67.3 143.4,67.3" fill="#6a4c98"/>
    <polygon points="176.9,90.4 184.7,90.4 155.6,67.3 150.9,67.3" fill="#563985"/>
    <polygon points="184.7,90.4 187.3,90.4 157.2,67.3 155.6,67.3" fill="#452974"/>
    <polygon points="62.8,67.3 64.4,67.3 99.5,56.6 99.1,56.6" fill="#9272c0"/>
    <polygon points="64.4,67.3 69.1,67.3 100.6,56.6 99.5,56.6" fill="#9878c7"/>
    <polygon points="69.1,67.3 76.6,67.3 102.3,56.6 100.6,56.6" fill="#9c7cca"/>
    <polygon points="76.6,67.3 86.4,67.3 104.6,56.6 102.3,56.6" fill="#9e7dcc"/>
    <polygon points="86.4,67.3 97.8,67.3 107.2,56.6 104.6,56.6" fill="#9c7ccb"/>
    <polygon points="97.8,67.3 110.0,67.3 110.0,56.6 107.2,56.6" fill="#9879c7"/>
    <polygon points="110.0,67.3 122.2,67.3 112.8,56.6 110.0,56.6" fill="#9273c1"/>
    <polygon points="122.2,67.3 133.6,67.3 115.4,56.6 112.8,56.6" fill="#8a6bb9"/>
    <polygon points="133.6,67.3 143.4,67.3 117.7,56.6 115.4,56.6" fill="#8162b0"/>
    <polygon points="143.4,67.3 150.9,67.3 119.4,56.6 117.7,56.6" fill="#7859a6"/>
    <polygon points="150.9,67.3 155.6,67.3 120.5,56.6 119.4,56.6" fill="#6e509d"/>
    <polygon points="155.6,67.3 157.2,67.3 120.9,56.6 120.5,56.6" fill="#654894"/>
    </g>
    <!-- soft top-left sheen + crisp rim -->
    <circle cx="110" cy="160" r="104" fill="url(#sheen)"/>
    <circle cx="110" cy="160" r="104" fill="none" stroke="#d9c8ff" stroke-opacity="0.5" stroke-width="1.5"/>

    <!-- wordmark -->
    <text x="284" y="176" font-size="98" font-weight="700" fill="#f4eeff"
          textLength="760" lengthAdjust="spacing" letter-spacing="-2">scintilla<tspan fill="#af87ff">.nvim</tspan></text>
    <text x="664" y="222" font-size="27" fill="#8676a6" text-anchor="middle"
          textLength="560" lengthAdjust="spacing">DEEP&#160;&#160;GEMSTONE&#160;&#160;COLORSCHEMES</text>
  </g>
</svg>
