<svg xmlns="http://www.w3.org/2000/svg" viewBox="0 0 1280 640" width="1280" height="640">
  <defs>
    <radialGradient id="glow" cx="0.5" cy="0.5" r="0.5">
      <stop offset="0" stop-color="#af87ff" stop-opacity="0.55"/>
      <stop offset="1" stop-color="#af87ff" stop-opacity="0"/>
    </radialGradient>
    <radialGradient id="sheen" cx="0.36" cy="0.32" r="0.7">
      <stop offset="0" stop-color="#d9c8ff" stop-opacity="0.30"/>
      <stop offset="0.4" stop-color="#d9c8ff" stop-opacity="0"/>
    </radialGradient>
    <clipPath id="ball"><circle cx="640" cy="320" r="212"/></clipPath>
  </defs>
  <rect width="1280" height="640" fill="#0e0024"/>
  <circle cx="640" cy="320" r="320" fill="url(#glow)"/>
  <g clip-path="url(#ball)" stroke="#0e0024" stroke-width="2.4" stroke-linejoin="round">
    <polygon points="617.8,530.8 618.6,530.8 547.0,508.9 543.8,508.9" fill="#2f145e"/>
    <polygon points="618.6,530.8 620.8,530.8 556.6,508.9 547.0,508.9" fill="#2f145e"/>
    <polygon points="620.8,530.8 624.3,530.8 571.9,508.9 556.6,508.9" fill="#2f145e"/>
    <polygon points="624.3,530.8 628.9,530.8 591.9,508.9 571.9,508.9" fill="#2f145e"/>
    <polygon points="628.9,530.8 634.3,530.8 615.1,508.9 591.9,508.9" fill="#2f145e"/>
    <polygon points="634.3,530.8 640.0,530.8 640.0,508.9 615.1,508.9" fill="#2f145e"/>
    <polygon points="640.0,530.8 645.7,530.8 664.9,508.9 640.0,508.9" fill="#2f145e"/>
    <polygon points="645.7,530.8 651.1,530.8 688.1,508.9 664.9,508.9" fill="#2f145e"/>
    <polygon points="651.1,530.8 655.7,530.8 708.1,508.9 688.1,508.9" fill="#2f145e"/>
    <polygon points="655.7,530.8 659.2,530.8 723.4,508.9 708.1,508.9" fill="#2f145e"/>
    <polygon points="659.2,530.8 661.4,530.8 733.0,508.9 723.4,508.9" fill="#2f145e"/>
    <polygon points="661.4,530.8 662.2,530.8 736.2,508.9 733.0,508.9" fill="#2f145e"/>
    <polygon points="543.8,508.9 547.0,508.9 487.8,461.9 482.5,461.9" fill="#2f145e"/>
    <polygon points="547.0,508.9 556.6,508.9 503.6,461.9 487.8,461.9" fill="#2f145e"/>
    <polygon points="556.6,508.9 571.9,508.9 528.6,461.9 503.6,461.9" fill="#341963"/>
    <polygon points="571.9,508.9 591.9,508.9 561.2,461.9 528.6,461.9" fill="#361b65"/>
    <polygon points="591.9,508.9 615.1,508.9 599.2,461.9 561.2,461.9" fill="#341963"/>
    <polygon points="615.1,508.9 640.0,508.9 640.0,461.9 599.2,461.9" fill="#2f145e"/>
    <polygon points="640.0,508.9 664.9,508.9 680.8,461.9 640.0,461.9" fill="#2f145e"/>
    <polygon points="664.9,508.9 688.1,508.9 718.8,461.9 680.8,461.9" fill="#2f145e"/>
    <polygon points="688.1,508.9 708.1,508.9 751.4,461.9 718.8,461.9" fill="#2f145e"/>
    <polygon points="708.1,508.9 723.4,508.9 776.4,461.9 751.4,461.9" fill="#2f145e"/>
    <polygon points="723.4,508.9 733.0,508.9 792.2,461.9 776.4,461.9" fill="#2f145e"/>
    <polygon points="733.0,508.9 736.2,508.9 797.5,461.9 792.2,461.9" fill="#2f145e"/>
    <polygon points="482.5,461.9 487.8,461.9 448.8,396.0 442.1,396.0" fill="#482c77"/>
    <polygon points="487.8,461.9 503.6,461.9 468.6,396.0 448.8,396.0" fill="#583b87"/>
    <polygon points="503.6,461.9 528.6,461.9 500.1,396.0 468.6,396.0" fill="#634591"/>
    <polygon points="528.6,461.9 561.2,461.9 541.0,396.0 500.1,396.0" fill="#664995"/>
    <polygon points="561.2,461.9 599.2,461.9 588.8,396.0 541.0,396.0" fill="#634692"/>
    <polygon points="599.2,461.9 640.0,461.9 640.0,396.0 588.8,396.0" fill="#593c87"/>
    <polygon points="640.0,461.9 680.8,461.9 691.2,396.0 640.0,396.0" fill="#492d78"/>
    <polygon points="680.8,461.9 718.8,461.9 739.0,396.0 691.2,396.0" fill="#361b65"/>
    <polygon points="718.8,461.9 751.4,461.9 779.9,396.0 739.0,396.0" fill="#2f145e"/>
    <polygon points="751.4,461.9 776.4,461.9 811.4,396.0 779.9,396.0" fill="#2f145e"/>
    <polygon points="776.4,461.9 792.2,461.9 831.2,396.0 811.4,396.0" fill="#2f145e"/>
    <polygon points="792.2,461.9 797.5,461.9 837.9,396.0 831.2,396.0" fill="#2f145e"/>
    <polygon points="442.1,396.0 448.8,396.0 435.2,320.0 428.0,320.0" fill="#6f519d"/>
    <polygon points="448.8,396.0 468.6,396.0 456.4,320.0 435.2,320.0" fill="#8364b2"/>
    <polygon points="468.6,396.0 500.1,396.0 490.1,320.0 456.4,320.0" fill="#9171bf"/>
    <polygon points="500.1,396.0 541.0,396.0 534.0,320.0 490.1,320.0" fill="#9676c4"/>
    <polygon points="541.0,396.0 588.8,396.0 585.1,320.0 534.0,320.0" fill="#9172c0"/>
    <polygon points="588.8,396.0 640.0,396.0 640.0,320.0 585.1,320.0" fill="#8465b3"/>
    <polygon points="640.0,396.0 691.2,396.0 694.9,320.0 640.0,320.0" fill="#70529e"/>
    <polygon points="691.2,396.0 739.0,396.0 746.0,320.0 694.9,320.0" fill="#563a85"/>
    <polygon points="739.0,396.0 779.9,396.0 789.9,320.0 746.0,320.0" fill="#3c206b"/>
    <polygon points="779.9,396.0 811.4,396.0 823.6,320.0 789.9,320.0" fill="#2f145e"/>
    <polygon points="811.4,396.0 831.2,396.0 844.8,320.0 823.6,320.0" fill="#2f145e"/>
    <polygon points="831.2,396.0 837.9,396.0 852.0,320.0 844.8,320.0" fill="#2f145e"/>
    <polygon points="428.0,320.0 435.2,320.0 448.8,244.0 442.1,244.0" fill="#8f6fbd"/>
    <polygon points="435.2,320.0 456.4,320.0 468.6,244.0 448.8,244.0" fill="#a484d3"/>
    <polygon points="456.4,320.0 490.1,320.0 500.1,244.0 468.6,244.0" fill="#b291e0"/>
    <polygon points="490.1,320.0 534.0,320.0 541.0,244.0 500.1,244.0" fill="#b796e5"/>
    <polygon points="534.0,320.0 585.1,320.0 588.8,244.0 541.0,244.0" fill="#b392e1"/>
    <polygon points="585.1,320.0 640.0,320.0 640.0,244.0 588.8,244.0" fill="#a585d3"/>
    <polygon points="640.0,320.0 694.9,320.0 691.2,244.0 640.0,244.0" fill="#9070be"/>
    <polygon points="694.9,320.0 746.0,320.0 739.0,244.0 691.2,244.0" fill="#7557a3"/>
    <polygon points="746.0,320.0 789.9,320.0 779.9,244.0 739.0,244.0" fill="#573a86"/>
    <polygon points="789.9,320.0 823.6,320.0 811.4,244.0 779.9,244.0" fill="#3a1f69"/>
    <polygon points="823.6,320.0 844.8,320.0 831.2,244.0 811.4,244.0" fill="#2f145e"/>
    <polygon points="844.8,320.0 852.0,320.0 837.9,244.0 831.2,244.0" fill="#2f145e"/>
    <polygon points="442.1,244.0 448.8,244.0 487.8,178.1 482.5,178.1" fill="#a181cf"/>
    <polygon points="448.8,244.0 468.6,244.0 503.6,178.1 487.8,178.1" fill="#b493e2"/>
    <polygon points="468.6,244.0 500.1,244.0 528.6,178.1 503.6,178.1" fill="#c19fef"/>
    <polygon points="500.1,244.0 541.0,244.0 561.2,178.1 528.6,178.1" fill="#c5a3f3"/>
    <polygon points="541.0,244.0 588.8,244.0 599.2,178.1 561.2,178.1" fill="#c19fef"/>
    <polygon points="588.8,244.0 640.0,244.0 640.0,178.1 599.2,178.1" fill="#b594e3"/>
    <polygon points="640.0,244.0 691.2,244.0 680.8,178.1 640.0,178.1" fill="#a282d0"/>
    <polygon points="691.2,244.0 739.0,244.0 718.8,178.1 680.8,178.1" fill="#8a6bb8"/>
    <polygon points="739.0,244.0 779.9,244.0 751.4,178.1 718.8,178.1" fill="#6f519e"/>
    <polygon points="779.9,244.0 811.4,244.0 776.4,178.1 751.4,178.1" fill="#543782"/>
    <polygon points="811.4,244.0 831.2,244.0 792.2,178.1 776.4,178.1" fill="#3b1f6a"/>
    <polygon points="831.2,244.0 837.9,244.0 797.5,178.1 792.2,178.1" fill="#2f145e"/>
    <polygon points="482.5,178.1 487.8,178.1 547.0,131.1 543.8,131.1" fill="#a282d0"/>
    <polygon points="487.8,178.1 503.6,178.1 556.6,131.1 547.0,131.1" fill="#b08fde"/>
    <polygon points="503.6,178.1 528.6,178.1 571.9,131.1 556.6,131.1" fill="#b997e7"/>
    <polygon points="528.6,178.1 561.2,178.1 591.9,131.1 571.9,131.1" fill="#bc9aea"/>
    <polygon points="561.2,178.1 599.2,178.1 615.1,131.1 591.9,131.1" fill="#b997e7"/>
    <polygon points="599.2,178.1 640.0,178.1 640.0,131.1 615.1,131.1" fill="#b08fdf"/>
    <polygon points="640.0,178.1 680.8,178.1 664.9,131.1 640.0,131.1" fill="#a383d1"/>
    <polygon points="680.8,178.1 718.8,178.1 688.1,131.1 664.9,131.1" fill="#9272c0"/>
    <polygon points="718.8,178.1 751.4,178.1 708.1,131.1 688.1,131.1" fill="#7e5fad"/>
    <polygon points="751.4,178.1 776.4,178.1 723.4,131.1 708.1,131.1" fill="#6a4c98"/>
    <polygon points="776.4,178.1 792.2,178.1 733.0,131.1 723.4,131.1" fill="#563985"/>
    <polygon points="792.2,178.1 797.5,178.1 736.2,131.1 733.0,131.1" fill="#452974"/>
    <polygon points="543.8,131.1 547.0,131.1 618.6,109.2 617.8,109.2" fill="#9272c0"/>
    <polygon points="547.0,131.1 556.6,131.1 620.8,109.2 618.6,109.2" fill="#9878c7"/>
    <polygon points="556.6,131.1 571.9,131.1 624.3,109.2 620.8,109.2" fill="#9c7cca"/>
    <polygon points="571.9,131.1 591.9,131.1 628.9,109.2 624.3,109.2" fill="#9e7dcc"/>
    <polygon points="591.9,131.1 615.1,131.1 634.3,109.2 628.9,109.2" fill="#9c7ccb"/>
    <polygon points="615.1,131.1 640.0,131.1 640.0,109.2 634.3,109.2" fill="#9879c7"/>
    <polygon points="640.0,131.1 664.9,131.1 645.7,109.2 640.0,109.2" fill="#9273c1"/>
    <polygon points="664.9,131.1 688.1,131.1 651.1,109.2 645.7,109.2" fill="#8a6bb9"/>
    <polygon points="688.1,131.1 708.1,131.1 655.7,109.2 651.1,109.2" fill="#8162b0"/>
    <polygon points="708.1,131.1 723.4,131.1 659.2,109.2 655.7,109.2" fill="#7859a6"/>
    <polygon points="723.4,131.1 733.0,131.1 661.4,109.2 659.2,109.2" fill="#6e509d"/>
    <polygon points="733.0,131.1 736.2,131.1 662.2,109.2 661.4,109.2" fill="#654894"/>
  </g>
  <circle cx="640" cy="320" r="212" fill="url(#sheen)"/>
  <circle cx="640" cy="320" r="212" fill="none" stroke="#d9c8ff" stroke-opacity="0.5" stroke-width="3"/>
</svg>
